<svg xmlns="http://www.w3.org/2000/svg">
  <symbol id="planet" viewBox="0 0 56 56" fill="none">
    <g clip-path="url(#clip0_28_111)">
      <path
        d="M1.9646 1.9646H3.88127L6.43043 13.8671C6.52395 14.303 6.76649 14.6927 7.11632 14.969C7.46615 15.2454 7.90138 15.3912 8.3471 15.3813H17.7196C18.1558 15.3806 18.5787 15.2311 18.9185 14.9575C19.2583 14.684 19.4946 14.3027 19.5884 13.8767L21.1696 6.75627H4.90668M8.62502 20.125C8.62502 20.6543 8.19596 21.0834 7.66668 21.0834C7.13741 21.0834 6.70835 20.6543 6.70835 20.125C6.70835 19.5957 7.13741 19.1667 7.66668 19.1667C8.19596 19.1667 8.62502 19.5957 8.62502 20.125ZM19.1667 20.125C19.1667 20.6543 18.7376 21.0834 18.2084 21.0834C17.6791 21.0834 17.25 20.6543 17.25 20.125C17.25 19.5957 17.6791 19.1667 18.2084 19.1667C18.7376 19.1667 19.1667 19.5957 19.1667 20.125Z"
        stroke="#FFEA00" stroke-width="2" stroke-linecap="round" stroke-linejoin="round" />
    </g>
    <defs>
      <clipPath id="clip0_28_111">
        <rect width="23" height="23" fill="white" />
      </clipPath>
    </defs>
  </symbol>
  <symbol id="laces" viewBox="0 0 54 54" fill="none">
    <g filter="url(#filter0_f_28_208)">
      <path
        d="M20.9938 8.20825C20.9487 8.16466 20.898 8.12721 20.843 8.09689C20.83 8.08917 20.8174 8.08226 20.8024 8.07535C20.7477 8.0474 20.6897 8.02676 20.6296 8.01398C20.626 8.01398 20.6223 8.01398 20.6183 8.01398C20.5757 8.00571 20.5324 8.00136 20.489 8.00098H13.0967C13.0527 8.00129 13.0089 8.00578 12.9658 8.01439H12.956C12.8958 8.02718 12.8376 8.04795 12.7829 8.07616C12.7699 8.08267 12.7573 8.08958 12.7443 8.09689C12.6894 8.1275 12.6387 8.16506 12.5935 8.20866L8.20825 12.5939C8.07485 12.7272 7.99985 12.9081 7.99976 13.0967V39.5472C8.00098 40.1932 8.21741 40.8204 8.61485 41.3296C9.01229 41.8389 9.56809 42.2012 10.1944 42.3593V45.2887C10.1944 45.4774 10.2694 45.6583 10.4027 45.7916C10.5361 45.925 10.717 46 10.9057 46C11.0943 46 11.2752 45.925 11.4086 45.7916C11.542 45.6583 11.6169 45.4774 11.6169 45.2887V42.3593C12.2432 42.2012 12.799 41.8389 13.1965 41.3296C13.5939 40.8204 13.8103 40.1932 13.8116 39.5472V13.8079H19.7794V39.5472C19.7805 40.193 19.9967 40.8199 20.3937 41.3291C20.7908 41.8383 21.3461 42.2008 21.972 42.3593V45.2887C21.972 45.4774 22.047 45.6583 22.1804 45.7916C22.3137 45.925 22.4946 46 22.6833 46C22.8719 46 23.0528 45.925 23.1862 45.7916C23.3196 45.6583 23.3945 45.4774 23.3945 45.2887V42.3593C24.0208 42.2011 24.5766 41.8388 24.974 41.3296C25.3714 40.8203 25.5879 40.1932 25.5892 39.5472V13.0967C25.5891 12.9081 25.5141 12.7272 25.3807 12.5939L20.9938 8.20825ZM12.3854 39.5472C12.379 39.9359 12.2201 40.3065 11.9429 40.5791C11.6658 40.8517 11.2926 41.0045 10.9038 41.0045C10.5151 41.0045 10.1419 40.8517 9.86474 40.5791C9.58759 40.3065 9.42866 39.9359 9.42222 39.5472V13.3913L12.3854 10.4281V39.5472ZM13.8079 12.3854V9.42222H19.7794V12.3854H13.8079ZM24.1651 39.5472C24.1586 39.9359 23.9997 40.3065 23.7226 40.5791C23.4454 40.8517 23.0722 41.0045 22.6835 41.0045C22.2947 41.0045 21.9216 40.8517 21.6444 40.5791C21.3672 40.3065 21.2083 39.9359 21.2019 39.5472V10.4281L24.1651 13.3913V39.5472Z"
        fill="#FFEA00" />
      <path
        d="M45.7914 12.5939L41.4061 8.20825C41.3611 8.16466 41.3106 8.12722 41.2558 8.09689C41.2424 8.08917 41.2298 8.08226 41.2151 8.07535C41.1606 8.04746 41.1027 8.02683 41.0428 8.01398H41.031C40.9884 8.00571 40.9452 8.00136 40.9018 8.00098H33.509C33.4651 8.00131 33.4212 8.0058 33.3781 8.01439H33.3688C33.3085 8.02714 33.2501 8.04792 33.1953 8.07616C33.1823 8.08267 33.1697 8.08958 33.1571 8.09689C33.102 8.12739 33.0512 8.16496 33.0059 8.20866L28.6206 12.5939C28.4872 12.7272 28.4122 12.9081 28.4121 13.0967V39.5472C28.4133 40.1932 28.6298 40.8204 29.0272 41.3296C29.4246 41.8389 29.9804 42.2012 30.6068 42.3593V45.2887C30.6068 45.4774 30.6817 45.6583 30.8151 45.7916C30.9485 45.925 31.1294 46 31.318 46C31.5066 46 31.6875 45.925 31.8209 45.7916C31.9543 45.6583 32.0292 45.4774 32.0292 45.2887V42.3593C32.6556 42.2012 33.2114 41.8389 33.6088 41.3296C34.0063 40.8204 34.2227 40.1932 34.2239 39.5472V13.8079H40.1918V39.5472C40.1929 40.193 40.409 40.8199 40.8061 41.3291C41.2031 41.8383 41.7584 42.2008 42.3844 42.3593V45.2887C42.3844 45.4774 42.4593 45.6583 42.5927 45.7916C42.7261 45.925 42.907 46 43.0956 46C43.2843 46 43.4652 45.925 43.5985 45.7916C43.7319 45.6583 43.8069 45.4774 43.8069 45.2887V42.3593C44.4332 42.2012 44.989 41.8389 45.3864 41.3296C45.7839 40.8204 46.0003 40.1932 46.0015 39.5472V13.0967C46.0013 13.0032 45.9826 12.9106 45.9465 12.8244C45.9105 12.7381 45.8578 12.6598 45.7914 12.5939ZM32.7978 39.5472C32.7913 39.9359 32.6324 40.3065 32.3553 40.5791C32.0781 40.8517 31.7049 41.0045 31.3162 41.0045C30.9274 41.0045 30.5543 40.8517 30.2771 40.5791C29.9999 40.3065 29.841 39.9359 29.8346 39.5472V13.3913L32.7978 10.4281V39.5472ZM34.2202 12.3854V9.42222H40.1918V12.3854H34.2202ZM44.5774 39.5472C44.571 39.9359 44.4121 40.3065 44.1349 40.5791C43.8578 40.8517 43.4846 41.0045 43.0958 41.0045C42.7071 41.0045 42.3339 40.8517 42.0568 40.5791C41.7796 40.3065 41.6207 39.9359 41.6142 39.5472V10.4281L44.5774 13.3913V39.5472Z"
        fill="#FFEA00" />
    </g>
    <path
      d="M20.9938 8.20825C20.9487 8.16466 20.898 8.12721 20.843 8.09689C20.83 8.08917 20.8174 8.08226 20.8024 8.07535C20.7477 8.0474 20.6897 8.02676 20.6296 8.01398C20.626 8.01398 20.6223 8.01398 20.6183 8.01398C20.5757 8.00571 20.5324 8.00136 20.489 8.00098H13.0967C13.0527 8.00129 13.0089 8.00578 12.9658 8.01439H12.956C12.8958 8.02718 12.8376 8.04795 12.7829 8.07616C12.7699 8.08267 12.7573 8.08958 12.7443 8.09689C12.6894 8.1275 12.6387 8.16506 12.5935 8.20866L8.20825 12.5939C8.07485 12.7272 7.99985 12.9081 7.99976 13.0967V39.5472C8.00098 40.1932 8.21741 40.8204 8.61485 41.3296C9.01229 41.8389 9.56809 42.2012 10.1944 42.3593V45.2887C10.1944 45.4774 10.2694 45.6583 10.4027 45.7916C10.5361 45.925 10.717 46 10.9057 46C11.0943 46 11.2752 45.925 11.4086 45.7916C11.542 45.6583 11.6169 45.4774 11.6169 45.2887V42.3593C12.2432 42.2012 12.799 41.8389 13.1965 41.3296C13.5939 40.8204 13.8103 40.1932 13.8116 39.5472V13.8079H19.7794V39.5472C19.7805 40.193 19.9967 40.8199 20.3937 41.3291C20.7908 41.8383 21.3461 42.2008 21.972 42.3593V45.2887C21.972 45.4774 22.047 45.6583 22.1804 45.7916C22.3137 45.925 22.4946 46 22.6833 46C22.8719 46 23.0528 45.925 23.1862 45.7916C23.3196 45.6583 23.3945 45.4774 23.3945 45.2887V42.3593C24.0208 42.2011 24.5766 41.8388 24.974 41.3296C25.3714 40.8203 25.5879 40.1932 25.5892 39.5472V13.0967C25.5891 12.9081 25.5141 12.7272 25.3807 12.5939L20.9938 8.20825ZM12.3854 39.5472C12.379 39.9359 12.2201 40.3065 11.9429 40.5791C11.6658 40.8517 11.2926 41.0045 10.9038 41.0045C10.5151 41.0045 10.1419 40.8517 9.86474 40.5791C9.58759 40.3065 9.42866 39.9359 9.42222 39.5472V13.3913L12.3854 10.4281V39.5472ZM13.8079 12.3854V9.42222H19.7794V12.3854H13.8079ZM24.1651 39.5472C24.1586 39.9359 23.9997 40.3065 23.7226 40.5791C23.4454 40.8517 23.0722 41.0045 22.6835 41.0045C22.2947 41.0045 21.9216 40.8517 21.6444 40.5791C21.3672 40.3065 21.2083 39.9359 21.2019 39.5472V10.4281L24.1651 13.3913V39.5472Z"
      fill="#FFEA00" />
    <path
      d="M45.7914 12.5939L41.4061 8.20825C41.3611 8.16466 41.3106 8.12722 41.2558 8.09689C41.2424 8.08917 41.2298 8.08226 41.2151 8.07535C41.1606 8.04746 41.1027 8.02683 41.0428 8.01398H41.031C40.9884 8.00571 40.9452 8.00136 40.9018 8.00098H33.509C33.4651 8.00131 33.4212 8.0058 33.3781 8.01439H33.3688C33.3085 8.02714 33.2501 8.04792 33.1953 8.07616C33.1823 8.08267 33.1697 8.08958 33.1571 8.09689C33.102 8.12739 33.0512 8.16496 33.0059 8.20866L28.6206 12.5939C28.4872 12.7272 28.4122 12.9081 28.4121 13.0967V39.5472C28.4133 40.1932 28.6298 40.8204 29.0272 41.3296C29.4246 41.8389 29.9804 42.2012 30.6068 42.3593V45.2887C30.6068 45.4774 30.6817 45.6583 30.8151 45.7916C30.9485 45.925 31.1294 46 31.318 46C31.5066 46 31.6875 45.925 31.8209 45.7916C31.9543 45.6583 32.0292 45.4774 32.0292 45.2887V42.3593C32.6556 42.2012 33.2114 41.8389 33.6088 41.3296C34.0063 40.8204 34.2227 40.1932 34.2239 39.5472V13.8079H40.1918V39.5472C40.1929 40.193 40.409 40.8199 40.8061 41.3291C41.2031 41.8383 41.7584 42.2008 42.3844 42.3593V45.2887C42.3844 45.4774 42.4593 45.6583 42.5927 45.7916C42.7261 45.925 42.907 46 43.0956 46C43.2843 46 43.4652 45.925 43.5985 45.7916C43.7319 45.6583 43.8069 45.4774 43.8069 45.2887V42.3593C44.4332 42.2012 44.989 41.8389 45.3864 41.3296C45.7839 40.8204 46.0003 40.1932 46.0015 39.5472V13.0967C46.0013 13.0032 45.9826 12.9106 45.9465 12.8244C45.9105 12.7381 45.8578 12.6598 45.7914 12.5939ZM32.7978 39.5472C32.7913 39.9359 32.6324 40.3065 32.3553 40.5791C32.0781 40.8517 31.7049 41.0045 31.3162 41.0045C30.9274 41.0045 30.5543 40.8517 30.2771 40.5791C29.9999 40.3065 29.841 39.9359 29.8346 39.5472V13.3913L32.7978 10.4281V39.5472ZM34.2202 12.3854V9.42222H40.1918V12.3854H34.2202ZM44.5774 39.5472C44.571 39.9359 44.4121 40.3065 44.1349 40.5791C43.8578 40.8517 43.4846 41.0045 43.0958 41.0045C42.7071 41.0045 42.3339 40.8517 42.0568 40.5791C41.7796 40.3065 41.6207 39.9359 41.6142 39.5472V10.4281L44.5774 13.3913V39.5472Z"
      fill="#FFEA00" />
    <defs>
      <filter id="filter0_f_28_208" x="-0.000244141" y="0.000976562" width="54.0017" height="53.999"
        filterUnits="userSpaceOnUse" color-interpolation-filters="sRGB">
        <feFlood flood-opacity="0" result="BackgroundImageFix" />
        <feBlend mode="normal" in="SourceGraphic" in2="BackgroundImageFix" result="shape" />
        <feGaussianBlur stdDeviation="4" result="effect1_foregroundBlur_28_208" />
      </filter>
    </defs>
  </symbol>
</svg>